<?xml version="1.0" standalone="no"?>
<!DOCTYPE svg PUBLIC "-//W3C//DTD SVG 20010904//EN"
 "http://www.w3.org/TR/2001/REC-SVG-20010904/DTD/svg10.dtd">
<svg version="1.0" xmlns="http://www.w3.org/2000/svg"
 width="158.000000pt" height="130.000000pt" viewBox="0 0 158.000000 130.000000"
 preserveAspectRatio="xMidYMid meet">

<g transform="translate(0.000000,130.000000) scale(0.100000,-0.100000)"
fill="#000000" stroke="none">
<path d="M652 1283 c-576 -3 -593 -4 -612 -23 -19 -19 -20 -34 -20 -474 0
-354 3 -455 13 -459 9 -4 9 -6 0 -6 -15 -1 -17 -37 -3 -46 7 -4 7 -13 0 -26
-6 -11 -9 -65 -8 -126 l3 -108 185 -3 186 -2 12 57 c57 269 448 271 504 3 l12
-60 188 0 188 0 0 178 0 177 58 17 c106 31 178 103 203 203 20 80 0 157 -61
235 -32 40 -94 81 -84 56 5 -13 2 -13 -19 -3 -14 6 -23 17 -20 23 4 12 -27 24
-63 24 -19 0 -20 4 -16 149 5 183 0 222 -31 219 -12 -2 -289 -4 -615 -5z m618
-458 c-10 -9 -20 -11 -29 -6 -11 7 -9 10 8 16 12 4 19 11 15 18 -5 8 -2 8 7
-1 11 -10 11 -14 -1 -27z m242 -34 c5 -20 6 -69 3 -87 -4 -20 -54 -52 -94 -59
-9 -2 -17 -4 -18 -5 -2 -2 -6 -3 -10 -4 -5 -1 -13 -4 -19 -8 -6 -4 -28 -8 -48
-10 -21 -1 -40 -6 -43 -11 -2 -4 -11 -3 -19 4 -8 7 -14 7 -14 1 0 -13 -35 -22
-60 -15 -17 5 -18 7 -4 21 12 12 13 17 3 23 -11 6 -10 9 3 14 9 4 15 12 12 18
-2 7 0 18 5 26 6 10 13 11 29 2 29 -15 31 -14 42 14 5 14 14 24 19 23 5 -2 23
12 39 31 30 32 32 33 60 19 29 -15 64 -10 76 11 7 10 35 5 38 -8z m-352 -85
c0 -16 -28 -42 -36 -33 -8 7 14 47 26 47 6 0 10 -6 10 -14z m-10 -84 c0 -8 -1
-13 -3 -11 -1 2 -9 12 -16 22 -12 15 -12 17 3 11 9 -3 16 -13 16 -22z m-90 3
c0 -9 -9 -15 -22 -15 -22 1 -23 1 -4 15 25 19 26 19 26 0z m50 -5 c0 -5 -4
-10 -10 -10 -5 0 -10 5 -10 10 0 6 5 10 10 10 6 0 10 -4 10 -10z m-206 -49 c3
-5 0 -14 -8 -20 -10 -9 -15 -8 -19 3 -9 22 15 37 27 17z m-374 -107 c0 -8 -5
-12 -10 -9 -6 4 -8 11 -5 16 9 14 15 11 15 -7z"/>
</g>
</svg>
